{"title":"Rychly Prachy (Praha - 15.12.2013) - Marketa","uid":9408000,"size":422404122,"categoryP":"porn","categoryS":"movies","magnet":"?xt=urn:btih:fc440add5f18e06944e661db2ace41988e884d66&amp;dn=Rychly+Prachy+%28Praha+-+15.12.2013%29+-+Marketa&amp;tr=udp%3A%2F%2Ftracker.openbittorrent.com%3A80&amp;tr=udp%3A%2F%2Fopen.demonii.com%3A1337&amp;tr=udp%3A%2F%2Ftracker.coppersurfer.tk%3A6969&amp;tr=udp%3A%2F%2Fexodus.desync.com%3A6969","seeders":0,"leechers":1,"uploader":null,"files":3,"time":1388204815,"description":"\n                Rychly Prachy (Praha - 15.12.2013) - Marketa\n\n\n\nScreen:\n  &lt;a href=&quot;\nhttp://image.bayimg.com/f278b9739e4eedafa15332dc7f21a0d34b7fd5a2.jpg&quot; rel=&quot;nofollow&quot; target=&quot;_NEW&quot;&gt;\nhttp://image.bayimg.com/f278b9739e4eedafa15332dc7f21a0d34b7fd5a2.jpg&lt;/a&gt;\n\n\nOficial website:\n  &lt;a href=&quot;\nhttp://rychlyprachy.cz&quot; rel=&quot;nofollow&quot; target=&quot;_NEW&quot;&gt;\nhttp://rychlyprachy.cz&lt;/a&gt;\n\n\nDirect Link:\n  &lt;a href=&quot;\nhttp://rychlyprachy.cz/video71.cz.html&quot; rel=&quot;nofollow&quot; target=&quot;_NEW&quot;&gt;\nhttp://rychlyprachy.cz/video71.cz.html&lt;/a&gt;\n\n\nGeneral\nComplete name                            : Rychly Prachy (Praha - 15.12.2013) - Marketa.wmv\nFormat                                   : Windows Media\nFile size                                : 403 MiB\nDuration                                 : 21mn 22s\nOverall bit rate mode                    : Constant\nOverall bit rate                         : 2 634 Kbps\nMaximum Overall bit rate                 : 2 645 Kbps\nEncoded date                             : UTC 2013-12-14 17:15:28.198\nSfOriginalFPS                            : 300000\n\nVideo\nID                                       : 2\nFormat                                   : VC-1\nFormat profile                           : MP@ML\nCodec ID                                 : WMV3\nCodec ID/Info                            : Windows Media Video 9\nCodec ID/Hint                            : WMV3\nDescription of the codec                 : Windows Media Video 9 - Professional\nDuration                                 : 21mn 22s\nBit rate mode                            : Constant\nBit rate                                 : 2 525 Kbps\nWidth                                    : 640 pixels\nHeight                                   : 480 pixels\nDisplay aspect ratio                     : 4:3\nFrame rate                               : 30.000 fps\nColor space                              : YUV\nChroma subsampling                       : 4:2:0\nBit depth                                : 8 bits\nScan type                                : Progressive\nCompression mode                         : Lossy\nBits/(Pixel*Frame)                       : 0.274\nStream size                              : 386 MiB (96%)\nLanguage                                 : Czech\n\nAudio\nID                                       : 1\nFormat                                   : WMA\nFormat version                           : Version 2\nCodec ID                                 : 161\nCodec ID/Info                            : Windows Media Audio\nDescription of the codec                 : Windows Media Audio 9.2 -  96 kbps, 44 kHz, stereo (A/V) 1-pass CBR\nDuration                                 : 21mn 22s\nBit rate mode                            : Constant\nBit rate                                 : 96.0 Kbps\nChannel(s)                               : 2 channels\nSampling rate                            : 44.1 KHz\nBit depth                                : 16 bits\nStream size                              : 14.7 MiB (4%)\nLanguage                                 : Czech","torrent":{"xt":"urn:btih:fc440add5f18e06944e661db2ace41988e884d66","amp;dn":"Rychly+Prachy+%28Praha+-+15.12.2013%29+-+Marketa","amp;tr":["udp%3A%2F%2Ftracker.openbittorrent.com%3A80","udp%3A%2F%2Fopen.demonii.com%3A1337","udp%3A%2F%2Ftracker.coppersurfer.tk%3A6969","udp%3A%2F%2Fexodus.desync.com%3A6969"],"infoHash":"fc440add5f18e06944e661db2ace41988e884d66","infoHashBuffer":{"type":"Buffer","data":[252,68,10,221,95,24,224,105,68,230,97,219,42,206,65,152,142,136,77,102]},"announce":[],"urlList":[]}}